<svg width="24" height="24" viewBox="0 0 24 24" fill="none" xmlns="http://www.w3.org/2000/svg">
<path d="M23.1844 11.7C23.1563 11.625 22.3594 9.8625 20.5969 8.09063C18.2438 5.74688 15.2719 4.5 12 4.5C8.72813 4.5 5.75626 5.74688 3.40313 8.09063C1.64063 9.8625 0.843756 11.625 0.815631 11.7C0.773775 11.7945 0.752151 11.8967 0.752151 12C0.752151 12.1033 0.773775 12.2055 0.815631 12.3C0.843756 12.375 1.64063 14.1375 3.40313 15.9094C5.75626 18.2531 8.72813 19.5 12 19.5C15.2719 19.5 18.2438 18.2531 20.5969 15.9094C22.3594 14.1375 23.1563 12.375 23.1844 12.3C23.2262 12.2055 23.2479 12.1033 23.2479 12C23.2479 11.8967 23.2262 11.7945 23.1844 11.7ZM12 8.625C12.6675 8.625 13.32 8.82294 13.8751 9.19379C14.4301 9.56464 14.8627 10.0917 15.1181 10.7084C15.3735 11.3251 15.4404 12.0037 15.3102 12.6584C15.1799 13.3131 14.8585 13.9145 14.3865 14.3865C13.9145 14.8585 13.3131 15.1799 12.6584 15.3102C12.0038 15.4404 11.3252 15.3735 10.7085 15.1181C10.0918 14.8626 9.56465 14.4301 9.1938 13.875C8.82295 13.32 8.62501 12.6675 8.62501 12C8.62501 11.1049 8.98059 10.2464 9.61352 9.61351C10.2465 8.98058 11.1049 8.625 12 8.625Z" fill="#8EA2B9"/>
</svg>
