<svg width="92" height="78" viewBox="0 0 92 78" fill="none" xmlns="http://www.w3.org/2000/svg">
<path d="M22.0874 45.1364C21.9561 42.7439 22.0002 40.3275 22.0438 37.93C22.0657 36.7379 22.0874 35.5507 22.0874 34.3734V0.0145796H41.3785C41.3785 0.0145796 41.3928 16.9388 41.3785 31.4906C41.3762 34.8339 41.3671 38.0524 41.3591 40.9135C41.3435 46.4357 41.3316 50.6255 41.3785 51.8075C41.7209 60.2826 44.0427 65.8251 48.3755 70.3584C62.7367 70.3477 72.0348 60.5748 72.5527 45.0219C72.6706 41.4509 72.7205 32.5891 72.7205 22.3255V0L91.9975 0.0178378V30.2025C91.9975 31.051 91.9983 31.8888 91.9988 32.7153C92.0048 40.7728 92.0099 47.729 91.4329 52.6635C89.6573 67.8576 80.3565 78 66.3284 78C59.1272 78 52.9978 75.1918 48.3771 70.3846C48.0523 70.3983 47.724 70.4051 47.3958 70.4051C37.9985 70.4051 29.1834 65.0325 24.8814 56.6881C23.0019 53.0455 22.3053 49.1249 22.0874 45.1364Z" fill="#0D6EFD"/>
<path d="M69.9126 45.1364C70.0439 42.7439 69.9998 40.3275 69.9562 37.93C69.9343 36.7379 69.9126 35.5507 69.9126 34.3734V0.0145796H50.6215C50.6215 0.0145796 50.6072 16.9388 50.6215 31.4906C50.6238 34.8339 50.6329 38.0524 50.6409 40.9135C50.6565 46.4357 50.6684 50.6255 50.6215 51.8075C50.2791 60.2826 47.9573 65.8251 43.6245 70.3584C29.2633 70.3477 19.9652 60.5748 19.4473 45.0219C19.3294 41.4509 19.2795 32.5891 19.2795 22.3255V0L0.00246177 0.0178378V30.2025C0.00246177 31.051 0.00170665 31.8888 0.00120278 32.7153C-0.00484373 40.7728 -0.00988287 47.729 0.567054 52.6635C2.34271 67.8576 11.6435 78 25.6716 78C32.8728 78 39.0022 75.1918 43.6229 70.3846C43.9477 70.3983 44.276 70.4051 44.6042 70.4051C54.0015 70.4051 62.8166 65.0325 67.1186 56.6881C68.9981 53.0455 69.6947 49.1249 69.9126 45.1364Z" fill="#0D6EFD"/>
</svg>
